<?xml version="1.0" encoding="iso-8859-1"?>
<!-- Generator: Adobe Illustrator 19.0.0, SVG Export Plug-In . SVG Version: 6.00 Build 0)  -->
<svg version="1.1" id="Layer_1" xmlns="http://www.w3.org/2000/svg" xmlns:xlink="http://www.w3.org/1999/xlink" x="0px" y="0px"
	 viewBox="0 0 512 512" style="enable-background:new 0 0 512 512;" xml:space="preserve">
<g>
	<g>
		<path d="M95.886,328.455c-26.386,0-47.852,21.776-47.852,47.851h15.645c0-17.731,14.449-32.206,32.207-32.206
			c17.758,0,32.207,14.475,32.207,32.206h15.645C143.737,350.23,122.271,328.455,95.886,328.455z"/>
	</g>
</g>
<g>
	<g>
		<path d="M95.886,352.472c-13.143,0-23.835,10.276-23.835,23.835h15.645c0-4.172,3.673-8.19,8.19-8.19
			c4.516,0,8.19,4.018,8.19,8.19h15.645C119.719,362.746,109.027,352.472,95.886,352.472z"/>
	</g>
</g>
<g>
	<g>
		<path d="M424.12,304.437c-9.346,0-18.271,1.812-26.469,5.072c1.464-4.144,2.268-8.596,2.268-13.235
			c0-21.971-17.875-39.846-39.844-39.846c-21.971,0-39.846,17.875-39.846,39.846c0,2.497,0.242,4.938,0.683,7.308
			c-0.504-0.229-1.003-0.468-1.513-0.688c-4.944-52.777-49.439-94.103-103.428-94.103c-28.044,0-53.524,11.155-72.235,29.27v-53.866
			c0-13.143-10.692-23.835-23.835-23.835c-4.515,0-8.19-3.673-8.19-8.19v-40.028H96.068v40.028
			c0,13.143,10.692,23.835,23.835,23.835c4.515,0,8.19,3.673,8.19,8.19v72.051h0.673c-9.469,14.589-15.376,31.7-16.486,50.1
			c-5.269-1.235-10.753-1.909-16.394-1.909c-39.628,0-71.868,32.235-71.868,71.869h15.645c0-31.29,25.222-56.224,56.223-56.224
			c31.001,0,56.224,24.934,56.224,56.224h15.645c0-1.224-0.032-2.443-0.093-3.653c4.976,2.238,10.486,3.495,16.286,3.495
			c9.323,0,17.902-3.227,24.697-8.612c-0.319,2.883-0.496,5.806-0.496,8.769h15.645c0-32.787,24.636-59.831,56.342-63.728
			c0,0.035,0.002,0.07,0.002,0.105h15.645c0-0.041-0.003-0.081-0.003-0.122c31.769,3.839,56.473,30.913,56.473,63.745h15.645
			c0-31.29,25.222-56.224,56.223-56.224s56.223,24.934,56.223,56.224h15.646C495.988,336.671,463.748,304.437,424.12,304.437z
			 M193.955,358.328v-9.834h-13.351v11.772c-9.128-1.268-16.64-7.644-19.551-16.141h7.253V328.48h-7.253
			c3.259-9.516,12.288-16.378,22.895-16.378c7.296,0,13.843,3.25,18.284,8.372h-11.292v15.645h13.351v-12.901
			c2.438,3.776,3.858,8.266,3.858,13.084C208.148,346.079,202.318,354.514,193.955,358.328z M232.972,318.603
			c-3.572,3.411-6.828,7.144-9.725,11.157c-1.982-11.939-9.287-22.095-19.389-27.948c3.009-3.618,7.59-6.042,12.717-6.042
			c9.041,0,16.397,7.545,16.397,16.517V318.603z M248.199,307.165c-2.466-15.216-15.704-27.042-31.625-27.042
			c-12.059,0-22.58,6.912-28.046,16.606c-1.504-0.173-3.031-0.271-4.581-0.271c-1.712,0-3.395,0.121-5.051,0.332
			c6.096-14.575,20.419-24.317,37.074-24.317c19.119,0,35.154,12.842,39.21,31.091C252.789,304.65,250.46,305.853,248.199,307.165z
			 M270.048,298.508c-6.233-24.225-28.114-41.682-54.076-41.682c-27.856,0-51.011,20.096-55.184,47.085
			c-3.529,2.531-6.629,5.622-9.17,9.145v-0.77c0-35.412,28.827-64.031,64.26-64.031c30.052,0,55.343,20.84,62.334,48.804
			C275.445,297.402,272.721,297.888,270.048,298.508z M294.216,296.698c-7.339-36.956-39.671-64.087-78.338-64.087
			c-44.059,0-79.905,35.637-79.905,79.675v4.398c-2.623-1.77-5.376-3.358-8.228-4.776c0.417-48.657,39.826-87.471,88.227-87.471
			c43.639,0,79.958,31.557,86.993,73.426C300.1,297.316,297.181,296.928,294.216,296.698z M360.509,342.914
			c-1.103-2.376-2.319-4.689-3.642-6.935c1.06,0.086,2.127,0.141,3.208,0.141c1.589,0,3.152-0.104,4.692-0.286
			C363.216,338.102,361.798,340.469,360.509,342.914z M375.921,314.54v-13.873H362.57v15.645h11.057
			c-3.87,2.626-8.535,4.162-13.554,4.162c-13.336,0-24.187-10.843-24.201-24.176h14.397v-15.645h-8.661
			c4.445-5.242,11.071-8.58,18.465-8.58c4.711,0,9.109,1.358,12.832,3.696v12.523h10.01c0.876,2.5,1.358,5.185,1.358,7.981
			C384.274,303.561,381.033,310.099,375.921,314.54z"/>
	</g>
</g>
<g>
	<g>
		<path d="M424.12,328.455c-26.386,0-47.852,21.776-47.852,47.851h15.645c0-17.731,14.449-32.206,32.207-32.206
			c17.758,0,32.207,14.475,32.207,32.206h15.645C471.972,350.23,450.506,328.455,424.12,328.455z"/>
	</g>
</g>
<g>
	<g>
		<path d="M424.12,352.472c-13.143,0-23.835,10.276-23.835,23.835h15.645c0-4.172,3.673-8.19,8.19-8.19
			c4.516,0,8.19,4.018,8.19,8.19h15.645C447.954,362.746,437.262,352.472,424.12,352.472z"/>
	</g>
</g>
<g>
	<g>
		<path d="M288.022,344.466c-17.556,0-31.839,14.109-31.839,31.84h15.645c0-9.387,7.264-16.195,16.194-16.195
			c8.929,0,16.195,6.808,16.195,16.195h15.645C319.863,358.574,305.579,344.466,288.022,344.466z"/>
	</g>
</g>
<g>
	<g>
		<path d="M288.022,320.449c-30.799,0-55.857,24.567-55.857,55.857h15.645c0-21.903,18.039-40.212,40.212-40.212
			s40.213,18.309,40.213,40.212h15.645C343.88,345.015,318.823,320.449,288.022,320.449z"/>
	</g>
</g>
<g>
	<g>
		<path d="M0,384.521v31.865c0,39.614,32.229,71.843,71.844,71.843h368.314c39.614,0,71.843-32.229,71.843-71.843v-31.865H0z
			 M496.355,407.596h-7.849v15.645h7.416c-3.394,27.765-27.099,49.343-55.765,49.343H71.844c-28.667,0-52.372-21.578-55.766-49.343
			h8.295v-15.645h-8.728v-7.43h480.71V407.596z"/>
	</g>
</g>
<g>
	<g>
		<rect x="31.674" y="407.593" width="15.645" height="15.645"/>
	</g>
</g>
<g>
	<g>
		<rect x="55.665" y="407.593" width="16.688" height="15.645"/>
	</g>
</g>
<g>
	<g>
		<rect x="79.654" y="407.593" width="15.645" height="15.645"/>
	</g>
</g>
<g>
	<g>
		<rect x="103.642" y="407.593" width="16.688" height="15.645"/>
	</g>
</g>
<g>
	<g>
		<rect x="127.631" y="407.593" width="15.645" height="15.645"/>
	</g>
</g>
<g>
	<g>
		<rect x="152.663" y="407.593" width="15.645" height="15.645"/>
	</g>
</g>
<g>
	<g>
		<rect x="175.609" y="407.593" width="16.688" height="15.645"/>
	</g>
</g>
<g>
	<g>
		<rect x="200.641" y="407.593" width="15.645" height="15.645"/>
	</g>
</g>
<g>
	<g>
		<rect x="223.587" y="407.593" width="16.688" height="15.645"/>
	</g>
</g>
<g>
	<g>
		<rect x="248.619" y="407.593" width="14.602" height="15.645"/>
	</g>
</g>
<g>
	<g>
		<rect x="271.565" y="407.593" width="16.688" height="15.645"/>
	</g>
</g>
<g>
	<g>
		<rect x="295.553" y="407.593" width="15.645" height="15.645"/>
	</g>
</g>
<g>
	<g>
		<rect x="320.585" y="407.593" width="15.645" height="15.645"/>
	</g>
</g>
<g>
	<g>
		<rect x="343.531" y="407.593" width="16.688" height="15.645"/>
	</g>
</g>
<g>
	<g>
		<rect x="368.563" y="407.593" width="15.645" height="15.645"/>
	</g>
</g>
<g>
	<g>
		<rect x="391.509" y="407.593" width="16.688" height="15.645"/>
	</g>
</g>
<g>
	<g>
		<rect x="416.541" y="407.593" width="15.645" height="15.645"/>
	</g>
</g>
<g>
	<g>
		<rect x="439.487" y="407.593" width="16.688" height="15.645"/>
	</g>
</g>
<g>
	<g>
		<rect x="464.519" y="407.593" width="15.645" height="15.645"/>
	</g>
</g>
<g>
	<g>
		<path d="M488.165,40.273H223.977c-10.336,0-19.153,6.615-22.448,15.832h-42.8c-3.559-13.696-16.027-23.838-30.82-23.838H110.94
			v-8.495H95.295v80.311h15.645v-8.134h0.001h16.967c14.922,0,27.474-10.32,30.906-24.198h42.592
			c3.194,9.404,12.101,16.191,22.57,16.191h264.189C501.308,87.942,512,77.25,512,64.108S501.308,40.273,488.165,40.273z
			 M127.909,80.302h-16.967V71.75h9.387V56.105h-9.387v-8.193h16.967v0.001c8.93,0,16.195,7.264,16.195,16.195
			S136.838,80.302,127.909,80.302z M440.528,72.297H223.977c-4.515,0-8.19-3.673-8.19-8.19s3.674-8.189,8.19-8.189h216.551V72.297z
			 M488.165,72.298h-31.993V55.919h31.993c4.515,0,8.19,3.673,8.19,8.19S492.682,72.298,488.165,72.298z"/>
	</g>
</g>
<g>
	<g>
		<rect x="72.353" y="23.773" width="15.645" height="80.311"/>
	</g>
</g>
<g>
	<g>
		<polygon points="47.319,23.773 47.319,32.117 14.986,32.117 14.986,47.762 47.319,47.762 47.319,56.106 14.986,56.106 
			14.986,71.751 47.319,71.751 47.319,81.138 14.986,81.138 14.986,96.783 47.319,96.783 47.319,104.084 62.964,104.084 
			62.964,23.773 		"/>
	</g>
</g>
<g>
</g>
<g>
</g>
<g>
</g>
<g>
</g>
<g>
</g>
<g>
</g>
<g>
</g>
<g>
</g>
<g>
</g>
<g>
</g>
<g>
</g>
<g>
</g>
<g>
</g>
<g>
</g>
<g>
</g>
</svg>
